<?xml version="1.0" encoding="UTF-8" standalone="no"?>
<!-- Created with Inkscape (http://www.inkscape.org/) -->

<svg
   width="210mm"
   height="297mm"
   viewBox="0 0 210 297"
   version="1.1"
   id="svg5"
   sodipodi:docname="medali.svg"
   inkscape:version="1.1.2 (b8e25be833, 2022-02-05)"
   xmlns:inkscape="http://www.inkscape.org/namespaces/inkscape"
   xmlns:sodipodi="http://sodipodi.sourceforge.net/DTD/sodipodi-0.dtd"
   xmlns="http://www.w3.org/2000/svg"
   xmlns:svg="http://www.w3.org/2000/svg">
  <sodipodi:namedview
     id="namedview7"
     pagecolor="#505050"
     bordercolor="#eeeeee"
     borderopacity="1"
     inkscape:pageshadow="0"
     inkscape:pageopacity="0"
     inkscape:pagecheckerboard="0"
     inkscape:document-units="mm"
     showgrid="false"
     showborder="false"
     inkscape:zoom="1.7033109"
     inkscape:cx="1017.7238"
     inkscape:cy="456.46394"
     inkscape:window-width="1920"
     inkscape:window-height="1080"
     inkscape:window-x="0"
     inkscape:window-y="0"
     inkscape:window-maximized="1"
     inkscape:current-layer="g16779" />
  <defs
     id="defs2">
    <inkscape:path-effect
       effect="spiro"
       id="path-effect13685"
       is_visible="true"
       lpeversion="1" />
  </defs>
  <g
     inkscape:label="Layer 1"
     inkscape:groupmode="layer"
     id="layer1">
    <g
       id="g4725"
       inkscape:export-filename="C:\Users\Rudi Wijaya\Documents\Si-Paling-Coding\I-Fun\Pengumuman\images\juara1.png"
       inkscape:export-xdpi="96"
       inkscape:export-ydpi="96">
      <path
         id="path13615"
         style="fill:#956e39;fill-opacity:1;stroke:none;stroke-width:0.264583px;stroke-linecap:butt;stroke-linejoin:miter;stroke-opacity:1"
         d="m -43.82893,-0.92639664 c -3.050149,0 -3.723114,2.44808794 -2.484251,4.40333074 l 31.798494,55.0766259 1.438735,2.714704 34.012001,-58.9103655 c 0.927231,-1.60600571 0.435228,-3.28429514 -2.06806,-3.28429514 z M -33.618349,4.5897842 H 8.4707841 c 1.6804899,0 2.0108299,1.1265375 1.3883675,2.2046697 L -12.973451,46.341722 -13.93944,44.519313 -35.286122,7.5457206 c -0.831663,-1.3125795 -0.379831,-2.9559364 1.667773,-2.9559364 z" />
      <circle
         style="fill:#e9a825;fill-opacity:1;stroke-width:2.64583;stroke-linecap:round;stroke-linejoin:round"
         id="circle2380"
         cx="-12.277046"
         cy="54.62035"
         r="16.57424" />
      <text
         xml:space="preserve"
         style="font-style:normal;font-variant:normal;font-weight:normal;font-stretch:normal;font-size:29.6788px;line-height:1.25;font-family:'Bernard MT Condensed';-inkscape-font-specification:'Bernard MT Condensed, Normal';font-variant-ligatures:normal;font-variant-caps:normal;font-variant-numeric:normal;font-variant-east-asian:normal;fill:#826d31;fill-opacity:1;stroke-width:0.264583"
         x="-18.007599"
         y="65.475449"
         id="text6780"><tspan
           sodipodi:role="line"
           id="tspan6778"
           style="font-style:normal;font-variant:normal;font-weight:normal;font-stretch:normal;font-size:29.6788px;font-family:'Bernard MT Condensed';-inkscape-font-specification:'Bernard MT Condensed, Normal';font-variant-ligatures:normal;font-variant-caps:normal;font-variant-numeric:normal;font-variant-east-asian:normal;fill:#826d31;fill-opacity:1;stroke-width:0.264583"
           x="-18.007599"
           y="65.475449">1</tspan></text>
    </g>
    <g
       id="g4737"
       inkscape:export-filename="C:\Users\Rudi Wijaya\Documents\Si-Paling-Coding\I-Fun\Pengumuman\images\juara3.png"
       inkscape:export-xdpi="96"
       inkscape:export-ydpi="96">
      <path
         id="path14409"
         style="fill:#956e39;fill-opacity:1;stroke:none;stroke-width:0.264583px;stroke-linecap:butt;stroke-linejoin:miter;stroke-opacity:1"
         d="m 409.35448,33.933846 c -3.05015,0 -3.72312,2.44809 -2.48425,4.403336 l 31.79853,55.076689 1.43873,2.714708 34.01204,-58.910434 c 0.92723,-1.606008 0.43523,-3.284299 -2.06806,-3.284299 z m 10.21059,5.516187 h 42.08918 c 1.6805,0 2.01084,1.126539 1.38837,2.204672 L 440.20999,81.20202 439.244,79.379607 417.8973,42.405973 c -0.83167,-1.312581 -0.37984,-2.95594 1.66777,-2.95594 z" />
      <circle
         style="fill:#bd4200;fill-opacity:1;stroke-width:2.64583;stroke-linecap:round;stroke-linejoin:round"
         id="circle14411"
         cx="440.9064"
         cy="89.480659"
         r="16.574259" />
      <text
         xml:space="preserve"
         style="font-style:normal;font-variant:normal;font-weight:normal;font-stretch:normal;font-size:29.6789px;line-height:1.25;font-family:'Bernard MT Condensed';-inkscape-font-specification:'Bernard MT Condensed, Normal';font-variant-ligatures:normal;font-variant-caps:normal;font-variant-numeric:normal;font-variant-east-asian:normal;fill:#e46d05;fill-opacity:1;stroke-width:0.264583"
         x="433.47592"
         y="101.8232"
         id="text14415"><tspan
           sodipodi:role="line"
           id="tspan14413"
           style="font-style:normal;font-variant:normal;font-weight:normal;font-stretch:normal;font-size:29.6789px;font-family:'Bernard MT Condensed';-inkscape-font-specification:'Bernard MT Condensed, Normal';font-variant-ligatures:normal;font-variant-caps:normal;font-variant-numeric:normal;font-variant-east-asian:normal;fill:#e46d05;fill-opacity:1;stroke-width:0.264583"
           x="433.47592"
           y="101.8232">3</tspan></text>
    </g>
    <g
       id="g4731"
       inkscape:export-filename="C:\Users\Rudi Wijaya\Documents\Si-Paling-Coding\I-Fun\Pengumuman\images\juara2.png"
       inkscape:export-xdpi="96"
       inkscape:export-ydpi="96">
      <path
         id="path14419"
         style="fill:#956e39;fill-opacity:1;stroke:none;stroke-width:0.264583px;stroke-linecap:butt;stroke-linejoin:miter;stroke-opacity:1"
         d="m 131.8909,111.11897 c -3.05015,0 -3.72311,2.4481 -2.48425,4.40334 l 31.79853,55.07669 1.43874,2.71471 34.01204,-58.91044 c 0.92723,-1.606 0.43523,-3.2843 -2.06806,-3.2843 z m 10.2106,5.51619 h 42.08918 c 1.68049,0 2.01083,1.12654 1.38837,2.20467 l -22.83263,39.54732 -0.96599,-1.82241 -21.34671,-36.97364 c -0.83166,-1.31258 -0.37983,-2.95594 1.66778,-2.95594 z" />
      <circle
         style="fill:#b79057;fill-opacity:1;stroke-width:2.64583;stroke-linecap:round;stroke-linejoin:round"
         id="circle14421"
         cx="163.44283"
         cy="166.66579"
         r="16.574259" />
      <text
         xml:space="preserve"
         style="font-style:normal;font-variant:normal;font-weight:normal;font-stretch:normal;font-size:29.6789px;line-height:1.25;font-family:'Bernard MT Condensed';-inkscape-font-specification:'Bernard MT Condensed, Normal';font-variant-ligatures:normal;font-variant-caps:normal;font-variant-numeric:normal;font-variant-east-asian:normal;fill:#d4b886;fill-opacity:1;stroke-width:0.264583"
         x="155.79987"
         y="177.94589"
         id="text14425"><tspan
           sodipodi:role="line"
           id="tspan14423"
           style="font-style:normal;font-variant:normal;font-weight:normal;font-stretch:normal;font-size:29.6789px;font-family:'Bernard MT Condensed';-inkscape-font-specification:'Bernard MT Condensed, Normal';font-variant-ligatures:normal;font-variant-caps:normal;font-variant-numeric:normal;font-variant-east-asian:normal;fill:#d4b886;fill-opacity:1;stroke-width:0.264583"
           x="155.79987"
           y="177.94589">2</tspan></text>
    </g>
    <text
       xml:space="preserve"
       style="font-size:86.7833px;line-height:1.25;font-family:sans-serif;stroke-width:0.264583"
       x="425.61716"
       y="301.9707"
       id="text2023"><tspan
         sodipodi:role="line"
         id="tspan2021"
         style="stroke-width:0.264583"
         x="425.61716"
         y="301.9707" /></text>
    <g
       id="g16779"
       inkscape:export-filename="C:\Users\Rudi Wijaya\Documents\Si-Paling-Coding\I-Fun\Pengumuman\images\favorit.png"
       inkscape:export-xdpi="96"
       inkscape:export-ydpi="96">
      <g
         id="g7906"
         transform="translate(228.56618,17.954928)"
         style="fill:#bcb54c;fill-opacity:1">
        <path
           d="m 257.74209,120.77692 v 9.29857 q 0,0.71999 0.8885,0.98041 0.44425,0.12255 0.55148,0.29106 0.12255,0.15319 0.12255,0.70467 0,0.85786 -0.13787,1.01105 -0.12255,0.15319 -0.62807,0.15319 h -7.00074 q -0.58212,0 -0.76594,-0.22979 -0.16851,-0.2451 -0.16851,-0.98041 0,-0.4902 0.0766,-0.61275 0.0919,-0.13787 0.50553,-0.3217 0.56679,-0.2451 0.70466,-0.41361 0.13787,-0.18383 0.13787,-0.53616 v -18.50523 q 0,-0.39829 -0.1685,-0.61275 -0.15319,-0.21447 -0.68935,-0.44425 -0.38298,-0.16851 -0.38298,-0.75063 0,-0.0613 0.0153,-0.67403 0.0919,-0.64339 0.73531,-0.64339 h 9.55899 q 0.42893,0 0.59744,0.13787 0.16851,0.13787 0.26042,0.67403 0.0153,0.0919 0.046,0.26042 l 0.68935,3.40079 q 0.0613,0.3217 0.0613,0.55149 0,0.4902 -0.7353,0.4902 -0.98041,0 -1.22552,-0.36765 -0.2451,-0.36766 -0.76594,-1.82295 -0.3217,-0.8885 -0.64339,-1.19488 -0.30638,-0.30637 -0.9651,-0.30637 -0.18382,0 -0.67403,0.0459 v 8.74709 h 0.78127 q 0.61275,0 0.84254,-0.27574 0.2451,-0.29106 0.35233,-0.98041 0.13787,-0.78126 0.26042,-0.99573 0.12255,-0.22978 1.01105,-0.22978 0.61276,0 0.73531,0.12255 0.13787,0.12255 0.13787,0.47489 v 5.54544 q 0,0.35233 -0.12255,0.45957 -0.12256,0.10723 -0.78127,0.10723 -0.79658,0 -1.01105,-0.26042 -0.19914,-0.26042 -0.30637,-1.27147 -0.12255,-1.02637 -1.11828,-1.02637 z"
           id="path7863"
           style="font-size:31.3731px;line-height:1.25;font-family:'Bernard MT Condensed';-inkscape-font-specification:'Bernard MT Condensed, Normal';fill:#bcb54c;fill-opacity:1;stroke-width:0.264583" />
        <path
           d="m 271.75888,118.37186 v -2.95655 q 0,-1.22551 -0.99572,-1.22551 -1.36339,0 -1.36339,1.85358 0,1.04169 -0.2451,1.48594 -0.22978,0.44424 -1.07232,0.76594 -0.82722,0.30638 -1.77699,0.30638 -1.9455,0 -1.9455,-2.08337 0,-1.96082 1.68508,-3.20165 1.70039,-1.24083 4.42716,-1.24083 1.79231,0 3.21696,0.4902 1.43998,0.49021 2.29784,1.65444 0.85786,1.16424 0.85786,2.55826 v 13.98615 q 0.0306,0.10723 0.45956,0.45957 0.30638,0.22978 0.30638,0.67403 0,0.61276 -0.16851,0.87318 -0.1685,0.2451 -0.82722,0.45956 -0.64339,0.21447 -1.6238,0.21447 -1.19487,0 -1.99146,-0.42893 -0.79658,-0.44425 -1.24083,-1.71572 -1.33274,1.3787 -2.15996,1.76168 -0.82722,0.38297 -1.7004,0.38297 -1.9455,0 -3.01782,-1.51657 -1.057,-1.53189 -1.057,-4.99396 0,-3.46207 0.99572,-4.79482 0.99573,-1.34806 3.891,-2.48166 1.83827,-0.70467 3.04846,-1.28678 z m 0,1.99145 q -1.73103,0.76595 -2.06805,1.73104 -0.33701,0.94977 -0.33701,4.30461 0,2.46634 0.27574,3.12505 0.27574,0.6434 0.94977,0.6434 1.17955,0 1.17955,-1.96082 z"
           id="path7865"
           style="font-size:31.3731px;line-height:1.25;font-family:'Bernard MT Condensed';-inkscape-font-specification:'Bernard MT Condensed, Normal';fill:#bcb54c;fill-opacity:1;stroke-width:0.264583" />
        <path
           d="m 286.11269,124.02453 1.71572,-8.41008 q 0.046,-0.26042 0.046,-0.50552 0,-0.64339 -0.50552,-0.96509 -0.30638,-0.18383 -0.30638,-0.67403 v -0.82722 q 0,-0.35234 0.35234,-0.35234 h 2.94122 q 0.35234,0 0.42893,0.0919 0.0919,0.0766 0.0919,0.44424 v 0.73531 q 0,0.30638 -0.0306,0.38297 -0.0153,0.0766 -0.36766,0.30638 -0.4902,0.33702 -0.68935,1.36338 l -3.20165,16.2074 q -0.26042,1.36338 -0.33701,1.48593 -0.0613,0.12255 -0.41361,0.12255 h -2.63485 q -0.21447,-0.0306 -0.45957,-1.22551 l -3.37016,-16.9427 q -0.15318,-0.73531 -0.4902,-1.01105 -0.41361,-0.35233 -0.41361,-0.62807 0,-1.05701 0.0919,-1.19488 0.0919,-0.13787 0.5668,-0.13787 h 5.37694 q 0.44424,0 0.58211,0.19915 0.15319,0.18383 0.15319,0.91913 0,0.42893 -0.0766,0.55148 -0.0613,0.12255 -0.39829,0.30638 -0.41361,0.22978 -0.41361,0.64339 0,0.29106 0.0919,0.70467 z"
           id="path7867"
           style="font-size:31.3731px;line-height:1.25;font-family:'Bernard MT Condensed';-inkscape-font-specification:'Bernard MT Condensed, Normal';fill:#bcb54c;fill-opacity:1;stroke-width:0.264583" />
      </g>
      <g
         id="g7912"
         transform="translate(209.08054,-4.3493724)"
         style="fill:#bcb54c;fill-opacity:1">
        <path
           d="m 257.89528,151.29216 q 2.87995,0 4.81014,2.5889 1.93018,2.57357 1.93018,7.65945 0,5.48416 -1.96082,8.30284 -1.96082,2.80336 -4.88673,2.80336 -2.02209,0 -3.50803,-1.28679 -1.48593,-1.28679 -2.29783,-3.43143 -0.79658,-2.14465 -0.79658,-5.86714 0,-5.31566 1.83826,-8.04242 1.85359,-2.72677 4.87141,-2.72677 z m 1.10296,3.84505 q 0,-1.89955 -1.10296,-1.89955 -1.19487,0 -1.19487,2.32848 v 12.73 q 0,2.31315 1.08764,2.31315 1.21019,0 1.21019,-2.31315 z"
           id="path7869"
           style="font-size:31.3731px;line-height:1.25;font-family:'Bernard MT Condensed';-inkscape-font-specification:'Bernard MT Condensed, Normal';fill:#bcb54c;fill-opacity:1;stroke-width:0.264583" />
        <path
           d="m 271.55974,155.58146 q 0.18382,-0.36766 0.44425,-1.28679 0.58211,-1.99146 1.13359,-2.49698 0.5668,-0.50553 1.24084,-0.50553 0.91913,0 1.3787,0.87318 0.47488,0.87318 0.47488,2.1906 0,2.834 -1.59316,2.834 -0.79659,0 -1.22552,-0.93445 -0.26042,-0.53616 -0.53616,-0.53616 -0.68935,0 -0.68935,1.51657 v 12.23979 q 0,0.58212 0.53616,0.85786 0.53617,0.26042 0.53617,0.84254 v 0.68935 q 0,0.36766 -0.0919,0.47489 -0.0766,0.0919 -0.47488,0.0919 h -5.77523 q -0.59743,0 -0.59743,-0.5668 v -0.84254 q 0,-0.42893 0.26042,-0.5668 0.52084,-0.26042 0.52084,-0.79658 v -15.42613 q 0,-0.52084 -0.36765,-0.75062 -0.3983,-0.22979 -0.45957,-0.35234 -0.0613,-0.13787 -0.0613,-0.79658 0,-0.55148 0.15319,-0.68935 0.16851,-0.13787 0.55148,-0.13787 h 4.1361 q 0.29106,0 0.3983,0.16851 0.10723,0.15319 0.10723,0.76594 z"
           id="path7871"
           style="font-size:31.3731px;line-height:1.25;font-family:'Bernard MT Condensed';-inkscape-font-specification:'Bernard MT Condensed, Normal';fill:#bcb54c;fill-opacity:1;stroke-width:0.264583" />
        <path
           d="m 281.53234,147.15606 q 1.73103,0 1.73103,1.16424 0,0.91913 -1.16423,1.56253 -1.14892,0.62807 -2.61953,0.62807 -1.89955,0 -1.89955,-1.27147 0,-1.01105 1.33275,-1.54721 1.33274,-0.53616 2.61953,-0.53616 z m -4.28929,5.86714 v -1.01105 q 0,-0.50552 0.61275,-0.50552 h 4.88673 q 0.52084,0 0.52084,0.50552 v 17.61673 q 0,0.36766 0.046,0.47489 0.046,0.10723 0.27574,0.19914 0.55148,0.21447 0.55148,0.94978 0,0.84254 -0.0766,1.01104 -0.0766,0.16851 -0.49021,0.16851 h -5.94373 q -0.21446,-0.0306 -0.27574,-0.18383 -0.0613,-0.1685 -0.0613,-0.85785 0,-0.82722 0.3983,-0.96509 0.4902,-0.16851 0.4902,-0.61276 v -15.27294 q 0,-0.8885 -0.65871,-1.07232 -0.27574,-0.0766 -0.27574,-0.44425 z"
           id="path7873"
           style="font-size:31.3731px;line-height:1.25;font-family:'Bernard MT Condensed';-inkscape-font-specification:'Bernard MT Condensed, Normal';fill:#bcb54c;fill-opacity:1;stroke-width:0.264583" />
        <path
           d="m 286.15865,153.60532 h -0.59744 q -0.26042,0 -0.33701,-0.0613 -0.0613,-0.0613 -0.0613,-0.33701 v -1.10296 q 0,-0.30638 0.0613,-0.3983 0.0766,-0.0919 0.41361,-0.13787 1.10296,-0.1685 2.22124,-1.22551 1.11828,-1.057 1.33274,-2.26719 0.0766,-0.42893 0.18383,-0.52085 0.12255,-0.10723 0.47488,-0.10723 h 0.99573 q 0.39829,0 0.39829,0.53616 v 3.52335 h 0.94977 q 0.53616,0 0.53616,0.50552 v 1.10296 q 0,0.49021 -0.53616,0.49021 h -0.94977 v 15.87037 q 0,0.81191 0.71999,1.16424 0.35233,0.16851 0.45957,0.41361 0.10723,0.2451 0.10723,0.8885 0,0.39829 -0.0613,0.44424 -0.046,0.046 -0.36765,0.046 h -4.84077 q -1.10296,-0.98041 -1.10296,-2.95655 z"
           id="path7875"
           style="font-size:31.3731px;line-height:1.25;font-family:'Bernard MT Condensed';-inkscape-font-specification:'Bernard MT Condensed, Normal';fill:#bcb54c;fill-opacity:1;stroke-width:0.264583" />
      </g>
      <path
         style="fill:none;stroke:#50460c;stroke-width:6.32354;stroke-linecap:square;stroke-linejoin:miter;stroke-miterlimit:4;stroke-dasharray:none;stroke-opacity:1"
         d="m 339.5936,211.19796 c 5.51431,-7.92113 11.4094,-17.4639 8.47294,-27.5287 -0.55204,-1.89216 -1.37013,-3.54727 -2.69594,-5.00522 -0.43866,-0.48239 -3.27364,-2.00547 -3.27364,-2.69512 0,-0.15527 2.43953,-5.07059 2.69594,-5.96776 1.63587,-5.7238 2.09751,-14.66173 -1.34797,-19.82837 -5.26575,-7.89623 -11.89822,0.42593 -9.24322,3.08013 0.14354,0.14349 -0.0881,-0.40352 -0.19256,-0.57752 -0.50411,-0.83992 -1.13509,-1.6109 -1.54054,-2.50261 -0.914,-2.0102 0.24172,-4.2847 0.70006,-6.42297 0.58681,-2.73762 4.0873,-5.35227 6.35471,-6.54528 7.71054,-4.05695 13.63899,-2.4671 21.37494,-0.19251 2.69818,0.79334 5.23011,1.92508 8.08781,1.92508 1.94813,0 9.05065,-2.46868 9.05065,-4.42769 v 0.77003 c 0,0.93074 -0.0344,1.78778 0.19257,2.69512 0.42251,1.68959 1.98539,2.54303 3.65878,2.69511 3.4296,0.31169 7.14529,0.45751 10.59118,0.19251 4.61352,-0.35478 20.90709,-0.62922 25.24631,0.81675"
         id="path8152"
         sodipodi:nodetypes="csssssssssssscscssc" />
      <path
         style="fill:none;stroke:#50460c;stroke-width:6.32354;stroke-linecap:square;stroke-linejoin:miter;stroke-miterlimit:4;stroke-dasharray:none;stroke-opacity:1"
         d="m 376.40659,116.20405 c -5.51431,7.92113 -11.4094,17.4639 -8.47295,27.5287 0.55205,1.89216 1.37014,3.54727 2.69594,5.00522 0.43866,0.48239 3.27364,2.00547 3.27364,2.69512 0,0.15527 -2.43953,5.07059 -2.69594,5.96776 -1.63587,5.7238 -2.0975,14.66173 1.34797,19.82837 5.26575,7.89623 11.89823,-0.42593 9.24322,-3.08013 -0.14354,-0.14349 0.0881,0.40352 0.19256,0.57752 -0.27998,7.74146 -3.77184,5.67222 -5.01462,8.92558 -0.58682,2.73762 -4.08731,5.35227 -6.35472,6.54528 -7.71053,4.05695 -13.63899,2.4671 -21.37494,0.19251 -2.69818,-0.79334 -5.2301,-1.92508 -8.08781,-1.92508 -1.94813,0 -9.05065,2.46868 -9.05065,4.42769 v -0.77004 c 0,-0.93074 0.0344,-1.78777 -0.19257,-2.69511 -0.42251,-1.68959 -1.98539,-2.54304 -3.65878,-2.69511 -3.4296,-0.3117 -7.14529,-0.45751 -10.59118,-0.19251 -4.61352,0.35478 -15.05198,0.62922 -19.39119,-0.81675"
         id="path8211"
         sodipodi:nodetypes="cssssssccssscscssc" />
      <g
         id="g17074"
         inkscape:export-filename="C:\Users\Rudi Wijaya\Documents\Si-Paling-Coding\I-Fun\Pengumuman\images\favorit.png"
         inkscape:export-xdpi="96"
         inkscape:export-ydpi="96">
        <rect
           style="opacity:0.888016;fill:#826d31;stroke:none;stroke-width:2.64583;stroke-linecap:round;stroke-linejoin:round"
           id="rect861"
           width="68.272003"
           height="30.957291"
           x="237.20784"
           y="104.90559"
           ry="0.60327584" />
        <text
           xml:space="preserve"
           style="font-style:normal;font-variant:normal;font-weight:normal;font-stretch:normal;font-size:19.879px;line-height:1.25;font-family:'Bernard MT Condensed';-inkscape-font-specification:'Bernard MT Condensed, Normal';font-variant-ligatures:normal;font-variant-caps:normal;font-variant-numeric:normal;font-variant-east-asian:normal;fill:#bcb54c;fill-opacity:1;stroke-width:0.264582"
           x="245.24261"
           y="127.71216"
           id="text1338"><tspan
             sodipodi:role="line"
             id="tspan1336"
             style="font-style:normal;font-variant:normal;font-weight:normal;font-stretch:normal;font-size:19.879px;font-family:'Bernard MT Condensed';-inkscape-font-specification:'Bernard MT Condensed, Normal';font-variant-ligatures:normal;font-variant-caps:normal;font-variant-numeric:normal;font-variant-east-asian:normal;fill:#bcb54c;fill-opacity:1;stroke-width:0.264582"
             x="245.24261"
             y="127.71216">Favorit</tspan></text>
        <path
           id="path14815"
           style="fill:none;stroke:#50460c;stroke-width:2.64583;stroke-linecap:butt;stroke-linejoin:miter;stroke-miterlimit:4;stroke-dasharray:none;stroke-opacity:1"
           d="m 238.76535,104.68606 -3.252,15.69672 c 2.52628,0 3.252,-15.69672 3.252,-15.69672 z m -3.252,15.69672 3.252,15.26057 c 0,-7.47602 -3.252,-15.26057 -3.252,-15.26057 z" />
        <path
           id="path14990"
           style="fill:none;stroke:#50460c;stroke-width:2.64583;stroke-linecap:butt;stroke-linejoin:miter;stroke-miterlimit:4;stroke-dasharray:none;stroke-opacity:1"
           d="m 303.77146,104.90574 3.252,15.69672 c -2.52628,0 -3.252,-15.69672 -3.252,-15.69672 z m 3.252,15.69672 -3.252,15.26056 c 0,-7.47602 3.252,-15.26056 3.252,-15.26056 z" />
        <path
           id="path14992"
           style="fill:none;stroke:#50460c;stroke-width:2.64583;stroke-linecap:butt;stroke-linejoin:miter;stroke-miterlimit:4;stroke-dasharray:none;stroke-opacity:1"
           d="m 304.41749,106.63303 -33.72772,-3.252 c 0,2.52628 33.72772,3.252 33.72772,3.252 z m -33.72772,-3.252 -32.79056,3.252 c 16.06383,0 32.79056,-3.252 32.79056,-3.252 z" />
        <path
           id="path14994"
           style="fill:none;stroke:#50460c;stroke-width:2.64583;stroke-linecap:butt;stroke-linejoin:miter;stroke-miterlimit:4;stroke-dasharray:none;stroke-opacity:1"
           d="m 304.747,133.84921 -33.72772,3.252 c 0,-2.52628 33.72772,-3.252 33.72772,-3.252 z m -33.72772,3.252 -32.79056,-3.252 c 16.06383,0 32.79056,3.252 32.79056,3.252 z" />
      </g>
    </g>
  </g>
</svg>
